<?xml version="1.0" encoding="UTF-8"?>
<svg width="30px" height="40px" viewBox="0 0 40 40" version="1.1" xmlns="http://www.w3.org/2000/svg" xmlns:xlink="http://www.w3.org/1999/xlink">
    <!-- Generator: Sketch 55.2 (78181) - https://sketchapp.com -->
    <title>Path</title>
    <desc>Created with Sketch.</desc>
    <g id="Jobs" stroke="none" stroke-width="1" fill="none" fill-rule="evenodd">
        <g transform="translate(-2396.000000, -47.000000)" fill="#ECC355" fill-rule="nonzero" id="Group-17">
            <g transform="translate(1450.000000, 32.000000)">
                <g id="Group-15" transform="translate(872.000000, 6.000000)">
                    <g id="crescent-moon-phase" transform="translate(94.000000, 29.000000) scale(-1, 1) translate(-94.000000, -29.000000) translate(74.000000, 9.000000)">
                        <path d="M25.5789064,29.4231091 C18.742462,28.5735439 13.2802398,23.1205004 12.5353509,16.4170221 C11.8500175,10.2500656 15.0482398,4.74919606 20.0340175,1.9457178 C21.0029064,1.40136997 20.6020175,-0.0508039396 19.4855731,0.00136997342 C18.2357953,0.059630843 16.9602398,0.235283017 15.6660175,0.542239539 C7.0455731,2.59354389 0.628684214,9.96484823 0.0455731027,18.6257178 C-0.738426897,30.2857178 8.69535088,39.9796308 20.4446842,39.9796308 C29.4029064,39.9796308 37.0126842,34.3439787 39.7762398,26.4978917 C40.1442398,25.4518048 38.8322398,24.66137 38.0171287,25.4283265 C34.8669064,28.3865874 30.4117953,30.0231091 25.5789064,29.4231091 Z" id="Path"></path>
                    </g>
                </g>
            </g>
        </g>
    </g>
</svg>