<?xml version="1.0" encoding="UTF-8"?>
<svg width="40px" height="40px" viewBox="0 0 40 40" version="1.1" xmlns="http://www.w3.org/2000/svg" xmlns:xlink="http://www.w3.org/1999/xlink">
    <!-- Generator: Sketch 55.2 (78181) - https://sketchapp.com -->
    <title>sun</title>
    <desc>Created with Sketch.</desc>
    <g id="Jobs-Dark" stroke="none" stroke-width="1" fill="none" fill-rule="evenodd">
        <g id="Jobs" transform="translate(-2341.000000, -47.000000)" fill-rule="nonzero">
            <g id="Group-11" transform="translate(1534.000000, 32.000000)">
                <g id="Group-17" transform="translate(0.000000, 0.000000)">
                    <g id="Group-15" transform="translate(788.000000, 6.000000)">
                        <g id="sun" transform="translate(19.000000, 9.000000)">
                            <circle id="Oval" fill="#FFCF00" cx="20" cy="20" r="8.75"></circle>
                            <path d="M20,5.625 C20.3454688,5.625 20.625,5.34515625 20.625,5 L20.625,0.625 C20.625,0.27984375 20.3454688,0 20,0 C19.6545312,0 19.375,0.27984375 19.375,0.625 L19.375,5 C19.375,5.34515625 19.6545313,5.625 20,5.625 Z" id="Path" fill="#FFCF00"></path>
                            <path d="M20,9.375 C20.3454688,9.375 20.625,9.09515625 20.625,8.75 L20.625,7.5 C20.625,7.15484375 20.3454688,6.875 20,6.875 C19.6545312,6.875 19.375,7.15484375 19.375,7.5 L19.375,8.75 C19.375,9.09515625 19.6545313,9.375 20,9.375 Z" id="Path" fill="#FFCF00"></path>
                            <path d="M20,34.375 C19.6545313,34.375 19.375,34.6545312 19.375,35 L19.375,39.375 C19.375,39.7204688 19.6545313,40 20,40 C20.3454688,40 20.625,39.7204688 20.625,39.375 L20.625,35 C20.625,34.6545312 20.3454688,34.375 20,34.375 Z" id="Path" fill="#FFCF00"></path>
                            <path d="M20,30.625 C19.6545313,30.625 19.375,30.9045312 19.375,31.25 L19.375,32.5 C19.375,32.8454688 19.6545313,33.125 20,33.125 C20.3454688,33.125 20.625,32.8454688 20.625,32.5 L20.625,31.25 C20.625,30.9045312 20.3454688,30.625 20,30.625 Z" id="Path" fill="#FFCF00"></path>
                            <path d="M39.375,19.375 L35,19.375 C34.6545312,19.375 34.375,19.6545313 34.375,20 C34.375,20.3454688 34.6545312,20.625 35,20.625 L39.375,20.625 C39.7204688,20.625 40,20.3454688 40,20 C40,19.6545312 39.7204688,19.375 39.375,19.375 Z" id="Path" fill="#FFCF00"></path>
                            <path d="M31.25,19.375 C30.9045312,19.375 30.625,19.6545313 30.625,20 C30.625,20.3454688 30.9045312,20.625 31.25,20.625 L32.5,20.625 C32.8454688,20.625 33.125,20.3454688 33.125,20 C33.125,19.6545312 32.8454688,19.375 32.5,19.375 L31.25,19.375 Z" id="Path" fill="#FFCF00"></path>
                            <path d="M5.625,20 C5.625,19.6545313 5.34546875,19.375 5,19.375 L0.625,19.375 C0.27953125,19.375 0,19.6545313 0,20 C0,20.3454688 0.27953125,20.625 0.625,20.625 L5,20.625 C5.34546875,20.625 5.625,20.3454688 5.625,20 Z" id="Path" fill="#FFCF00"></path>
                            <path d="M8.75,19.375 L7.5,19.375 C7.15453125,19.375 6.875,19.6545313 6.875,20 C6.875,20.3454688 7.15453125,20.625 7.5,20.625 L8.75,20.625 C9.09546875,20.625 9.375,20.3454688 9.375,20 C9.375,19.6545312 9.09546875,19.375 8.75,19.375 Z" id="Path" fill="#FFCF00"></path>
                            <path d="M11.6033594,27.5128125 L6.43304687,32.683125 C6.18890625,32.9272656 6.18890625,33.3228125 6.43304687,33.5669531 C6.55515625,33.6889844 6.71507813,33.75 6.875,33.75 C7.03492188,33.75 7.19484375,33.6889844 7.316875,33.566875 L12.4871875,28.3965625 C12.7313281,28.1524219 12.7313281,27.756875 12.4871875,27.5127344 C12.2430469,27.2685938 11.8475,27.2686719 11.6033594,27.5128125 Z" id="Path" fill="#FF9300"></path>
                            <path d="M27.9546875,12.67 C28.1146094,12.67 28.2745312,12.6089844 28.3965625,12.486875 L33.566875,7.316875 C33.8110156,7.07273437 33.8110156,6.6771875 33.566875,6.43304687 C33.3227344,6.18890625 32.9272656,6.18890625 32.683125,6.43304687 L27.5128125,11.6030469 C27.2686719,11.8471875 27.2686719,12.2427344 27.5128125,12.486875 C27.6348438,12.6089844 27.7947656,12.67 27.9546875,12.67 Z" id="Path" fill="#FF9300"></path>
                            <path d="M15.1171875,9.84554688 C15.2166406,10.0860156 15.4498437,10.2315625 15.6946094,10.2315625 C15.7745312,10.2315625 15.8557812,10.2160156 15.9339062,10.1836719 C16.2525,10.0515625 16.4039062,9.6859375 16.2720312,9.36703125 L14.3585156,4.74765625 C14.2266406,4.42875 13.8598437,4.27890625 13.541875,4.40953125 C13.2232812,4.54164062 13.071875,4.90726562 13.20375,5.22617187 L15.1171875,9.84554688 Z" id="Path" fill="#FF7400"></path>
                            <path d="M24.8828125,30.154375 C24.7503906,29.8357813 24.3841406,29.685625 24.0661719,29.81625 C23.7475781,29.948125 23.5961719,30.3136719 23.7280469,30.6328906 L25.6414844,35.2520313 C25.7409375,35.4925 25.9741406,35.6378125 26.2189063,35.6378125 C26.2988281,35.6378125 26.3800781,35.6225781 26.4582031,35.5902344 C26.7767969,35.4583594 26.9282031,35.0928125 26.7963281,34.7735938 L24.8828125,30.154375 Z" id="Path" fill="#FF7400"></path>
                            <path d="M28.3965625,27.5128125 C28.1524219,27.2686719 27.756875,27.2686719 27.5127344,27.5128125 C27.2685938,27.7569531 27.2685938,28.1525 27.5127344,28.3966406 L32.6830469,33.5669531 C32.8051562,33.6890625 32.965,33.7500781 33.1249219,33.7500781 C33.2848438,33.7500781 33.4447656,33.6890625 33.5667969,33.5669531 C33.8109375,33.3228125 33.8109375,32.9272656 33.5667969,32.683125 L28.3965625,27.5128125 Z" id="Path" fill="#FF9300"></path>
                            <path d="M11.6033594,12.486875 C11.7254688,12.6089844 11.8853125,12.67 12.0452344,12.67 C12.2051563,12.67 12.3650781,12.6089844 12.4871094,12.486875 C12.73125,12.2427344 12.73125,11.8471875 12.4871094,11.6030469 L7.31679688,6.43304688 C7.07265625,6.18890625 6.67710938,6.18890625 6.43296875,6.43304688 C6.18882813,6.6771875 6.18882813,7.07273438 6.43296875,7.316875 L11.6033594,12.486875 Z" id="Path" fill="#FF9300"></path>
                            <path d="M24.0661719,10.18375 C24.1442969,10.2160937 24.2254688,10.2316406 24.3054688,10.2316406 C24.5502344,10.2316406 24.7833594,10.0860937 24.8828906,9.845625 L26.7963281,5.22617188 C26.9282031,4.90726563 26.7767969,4.54164063 26.4582031,4.40953125 C26.1414063,4.27859375 25.7733594,4.4284375 25.6415625,4.74765625 L23.728125,9.36710938 C23.5961719,9.6859375 23.7475781,10.0515625 24.0661719,10.18375 Z" id="Path" fill="#FF7400"></path>
                            <path d="M15.9338281,29.81625 C15.6170313,29.685 15.2489844,29.8351563 15.1171875,30.154375 L13.20375,34.7735156 C13.071875,35.0927344 13.2232813,35.4583594 13.541875,35.5901562 C13.62,35.6225 13.7011719,35.6377344 13.7811719,35.6377344 C14.0259375,35.6377344 14.2590625,35.4925 14.3585938,35.2519531 L16.2720313,30.6328125 C16.4038281,30.3136719 16.2524219,29.948125 15.9338281,29.81625 Z" id="Path" fill="#FF7400"></path>
                            <path d="M10.18375,24.0661719 C10.051875,23.7469531 9.68445313,23.5961719 9.36710938,23.7280469 L4.74796875,25.6414844 C4.429375,25.7733594 4.27796875,26.1389063 4.40984375,26.458125 C4.50929688,26.6985938 4.7425,26.8439063 4.98726563,26.8439063 C5.0671875,26.8439063 5.1484375,26.8286719 5.2265625,26.7963281 L9.84570312,24.8828906 C10.1642188,24.7509375 10.3155469,24.3853906 10.18375,24.0661719 Z" id="Path" fill="#FF7400"></path>
                            <path d="M29.81625,15.9338281 C29.9157031,16.1742969 30.1489062,16.3196094 30.3936719,16.3196094 C30.4735937,16.3196094 30.5548437,16.304375 30.6329687,16.2720312 L35.2521094,14.3585937 C35.5707031,14.2267187 35.7221094,13.8611719 35.5902344,13.5419531 C35.4583594,13.2233594 35.0909375,13.0732031 34.7735937,13.2038281 L30.154375,15.1171875 C29.8357812,15.2489844 29.6844531,15.6146094 29.81625,15.9338281 Z" id="Path" fill="#FF7400"></path>
                            <path d="M4.74789063,14.3585156 L9.36703125,16.2719531 C9.44515625,16.3042969 9.52632813,16.3195313 9.60632813,16.3195313 C9.85109375,16.3195313 10.0842188,16.1742969 10.18375,15.93375 C10.315625,15.6145313 10.1642187,15.2489063 9.845625,15.1171094 L5.22648438,13.2036719 C4.9090625,13.0727344 4.54164063,13.2232031 4.40984375,13.5417969 C4.27796875,13.8610938 4.42929688,14.2267187 4.74789063,14.3585156 Z" id="Path" fill="#FF7400"></path>
                            <path d="M35.2520312,25.6414844 L30.6328906,23.7280469 C30.3154687,23.5961719 29.9480469,23.7469531 29.81625,24.0661719 C29.6844531,24.3853906 29.8357812,24.7510156 30.154375,24.8828125 L34.7735156,26.79625 C34.8516406,26.8285937 34.9328125,26.8438281 35.0128125,26.8438281 C35.2575781,26.8438281 35.4907031,26.6985937 35.5902344,26.4580469 C35.7220312,26.1389062 35.570625,25.7732813 35.2520312,25.6414844 Z" id="Path" fill="#FF7400"></path>
                        </g>
                    </g>
                </g>
            </g>
        </g>
    </g>
</svg>